<?xml version="1.0" encoding="UTF-8"?>
<svg id="Layer_2" data-name="Layer 2" xmlns="http://www.w3.org/2000/svg" viewBox="0 0 3951.36 572.55">
  <defs>
    <style>
      .cls-1 {
        fill: #fff;
        stroke-width: 0px;
      }
    </style>
  </defs>
  <g id="C">
    <g>
      <path class="cls-1" d="M946.54,518.32L765.55,11.58h81.08l140.44,393.08L1127.51,11.58h81.08l-180.98,506.74h-81.07Z"/>
      <path class="cls-1" d="M1275.92,0c28.96,0,53.57,24.61,53.57,53.57s-24.61,54.29-53.57,54.29c-30.4,0-55.01-24.61-55.01-54.29S1245.52,0,1275.92,0ZM1316.46,156.36v361.96h-82.53V156.36h82.53Z"/>
      <path class="cls-1" d="M1543.77,144.78c91.22,0,136.1,28.23,170.12,73.84l-65.88,45.61c-13.76-30.4-57.19-45.61-104.25-45.61-24.61,0-66.6,7.96-66.6,32.58,0,47.78,257.71,18.82,257.71,155.64,0,78.18-76.73,123.06-173.74,123.06-90.49,0-156.37-36.2-190.39-91.94l65.88-45.61c26.06,34.02,61.53,63.7,124.51,63.7s90.49-20.99,90.49-41.26c0-72.39-256.99-25.34-256.99-161.43,0-57.91,56.47-108.59,149.13-108.59Z"/>
      <path class="cls-1" d="M2062.08,518.32v-40.54c-28.23,31.85-70.94,52.12-126.69,52.12-95.56,0-160.71-73.12-160.71-165.05v-208.49h82.53v208.49c0,49.23,37.65,93.39,102.8,93.39s102.07-44.16,102.07-93.39v-208.49h82.53v361.96h-82.53Z"/>
      <path class="cls-1" d="M2517.43,205.59v-49.23h82.53v361.96h-82.53v-47.78c-29.68,38.37-73.12,59.36-122.34,59.36-102.8,0-185.32-84.7-185.32-191.84s82.53-193.29,185.32-193.29c49.23,0,92.66,21.72,122.34,60.81ZM2405.22,456.06c65.88,0,112.21-47.78,112.21-118s-46.33-119.45-112.21-119.45-112.93,48.5-112.93,119.45,46.33,118,112.93,118Z"/>
      <path class="cls-1" d="M2769.35,11.58v506.74h-82.53V11.58h82.53Z"/>
      <path class="cls-1" d="M2938.75,156.36v361.96h-82.53V156.36h82.53ZM2985.8,95.19h-176.64V12.66h176.64v82.53Z"/>
      <path class="cls-1" d="M3313.73,230.2l-218.62,214.28h229.48v73.84h-338.79v-73.84l218.62-214.28h-196.91v-73.84h306.22v73.84Z"/>
      <path class="cls-1" d="M3826.11,518.32h-81.07l-34.03-94.83h-212.83l-34.03,94.83h-81.07L3564.05,11.58h81.08l180.98,506.74ZM3684.23,348.2l-79.63-222.97-79.63,222.97h159.26Z"/>
      <path class="cls-1" d="M3951.36,11.58v506.74h-85.42V11.58h85.42Z"/>
    </g>
    <g>
      <path class="cls-1" d="M112.31,474.61c-1.61-1.68-3.27-3.45-5.25-5.6l-.51-.42-1.19-1.45c-.26-.3-.54-.58-.79-.89l-.21-.23c-.21-.23-.44-.47-.65-.72l-.19-.21c-.89-.96-1.77-1.91-2.61-2.89l-1.89-1.91-.33-.58c-.51-.58-1.03-1.19-1.52-1.77l-1.03-1.19c-.79-.91-1.59-1.82-2.36-2.75l-1.77-2.1c-.12-.14-.23-.26-.33-.4l-.72-.86-.02-.05c-.05-.07-.09-.12-.14-.19l-.02-.02c-1.31-1.52-2.5-2.96-3.52-4.27l-.21-.23-1.47-1.84h-.02c-1.68-2.1-3.41-4.27-5.09-6.44-.12-.14-.23-.28-.35-.44l-.26-.3-.23-.35c-.51-.68-1.03-1.33-1.54-2.01-.91-1.19-1.82-2.4-2.73-3.62l-.19-.26c-.61-.79-1.35-1.75-2.15-2.87-.58-.79-1.19-1.61-1.77-2.43-.65-.86-1.28-1.75-1.91-2.61l-.3-.42-.09-.14c-.14-.21-.3-.42-.44-.63-.65-.93-1.28-1.84-1.94-2.78-1.66-2.36-3.03-4.34-4.29-6.23-17.99-26.39-33.41-54.6-45.88-83.89C5.55,368.72,0,410.42,0,452.82v119.73h8.03c54.7,0,100.85-36.71,115.13-86.8l-.14-.14c-3.45-3.43-6.98-7.02-10.71-10.99Z"/>
      <path class="cls-1" d="M444.19,451.04c0-2.29-.05-4.57-.09-6.88v-.14c-1.07-42.52-10.85-85.43-28.47-125.58-11.13,18.43-24.27,35.66-40.6,49.58-21.86,18.64-48.58,29.61-77.4,29.77-28.8-.16-55.51-11.13-77.38-29.77-16.36-13.93-29.47-31.15-40.6-49.58-3.01-4.95-5.86-9.99-8.59-15.07-1.82-3.41-3.62-6.86-5.32-10.31-23.31-46.86-36.59-97.98-37.9-150.43-.05-2.54-.09-5.04-.09-7.54v-1.77c0-1.38-.02-2.75-.09-4.11-.3-9.96-1.87-19.62-4.5-28.82C108.85,50.28,62.72,13.58,8.03,13.58H0v119.73c0,42.42,5.55,84.12,16.4,124.23,2.17,8.12,4.57,16.17,7.19,24.15q.02.07.02.09c1.24,3.78,2.54,7.56,3.9,11.29.42,1.26.89,2.52,1.33,3.76,1.84,5.02,3.76,9.96,5.81,14.93,12.39,30.66,28.07,60.02,46.95,87.69,1.31,1.94,2.64,3.87,4.01,5.81.72,1.03,1.42,2.03,2.15,3.08.14.21.3.44.47.65,1.24,1.73,2.52,3.45,3.76,5.16.65.93,1.35,1.8,2.01,2.66,1.4,1.94,2.87,3.8,4.29,5.69.19.23.42.49.63.77,1.56,2.03,3.15,4.06,4.76,6.04.51.61.96,1.17,1.42,1.75.05.05.07.09.12.14,1.14,1.42,2.26,2.82,3.48,4.2.42.54.82,1.05,1.24,1.52.54.63,1.03,1.21,1.56,1.82.05.09.12.14.14.21,1.07,1.26,2.17,2.52,3.29,3.78,0,.02.02.02.02.07.98,1.17,2.01,2.31,3.03,3.48.02.05.09.09.12.14,1.07,1.24,2.19,2.43,3.29,3.64.02.02.05.09.09.12.58.65,1.12,1.24,1.68,1.89l.16.16c.26.26.54.56.77.84,1.19,1.28,2.38,2.57,3.57,3.83.51.54,1.03,1.07,1.54,1.61,3.34,3.55,6.72,7.02,10.2,10.48,3.13,3.06,6.28,6.11,9.45,9.08.37.35.77.72,1.14,1.07,8.8,8.19,17.92,16.03,27.35,23.52,5.23,4.18,10.55,8.19,15.96,12.09,24.29,17.64,50.26,32.9,77.66,45.52l26.67,12.27,26.69-12.27c27.39-12.62,53.34-27.88,77.66-45.52,5.41-3.9,10.73-7.91,15.96-12.09,9.43-7.49,18.53-15.33,27.35-23.52.37-.35.77-.72,1.14-1.07-1.47-8.19-2.24-16.64-2.24-25.25v-1.77Z"/>
      <path class="cls-1" d="M560.63,274.36c-12.39-30.66-28.09-60.04-46.95-87.69-1.31-1.94-2.64-3.87-4.01-5.83-.72-1-1.42-2.01-2.15-3.06-.14-.21-.33-.44-.47-.68-1.24-1.7-2.52-3.43-3.76-5.13-.65-.93-1.35-1.8-2.03-2.68-1.38-1.91-2.85-3.78-4.27-5.67-.21-.23-.42-.49-.63-.77-1.56-2.03-3.15-4.06-4.78-6.04-.49-.61-.93-1.17-1.4-1.75-.05-.05-.07-.09-.12-.14-1.14-1.42-2.26-2.82-3.48-4.2-.42-.54-.82-1.05-1.24-1.54-.54-.61-1.03-1.19-1.56-1.8-.05-.09-.12-.14-.14-.21-1.07-1.26-2.17-2.52-3.29-3.78,0-.02-.02-.02-.02-.07-.98-1.17-2.01-2.33-3.03-3.48-.02-.05-.09-.09-.12-.14-1.07-1.24-2.19-2.45-3.29-3.64-.02-.02-.05-.09-.09-.12-.58-.65-1.12-1.26-1.68-1.89l-.16-.16c-.26-.26-.54-.56-.77-.84-1.19-1.31-2.38-2.59-3.57-3.85-.51-.54-1.03-1.07-1.54-1.61-3.34-3.52-6.72-7-10.2-10.45-3.13-3.06-6.28-6.11-9.45-9.08-.37-.35-.77-.72-1.14-1.07-8.82-8.19-17.92-16.03-27.35-23.52-5.23-4.18-10.55-8.19-15.96-12.11-24.31-17.62-50.26-32.88-77.66-45.5l-26.69-12.27-26.67,12.27c-27.39,12.62-53.37,27.88-77.66,45.5-5.41,3.92-10.73,7.93-15.96,12.11-9.43,7.49-18.55,15.33-27.35,23.52-.37.35-.77.72-1.14,1.07,1.47,8.19,2.24,16.64,2.24,25.25v1.77c0,2.33.05,4.64.09,7.02,1.07,42.49,10.83,85.4,28.47,125.56,11.13-18.41,24.24-35.66,40.6-49.58,21.86-18.62,48.58-29.59,77.38-29.75,28.82.16,55.53,11.13,77.4,29.75,16.33,13.93,29.47,31.17,40.6,49.58,3.01,4.95,5.86,9.99,8.59,15.07,1.82,3.41,3.62,6.86,5.32,10.31,23.31,46.88,36.56,98,37.89,150.46.05,2.54.09,5.04.09,7.54v1.77c0,1.38.02,2.73.09,4.08.3,9.96,1.87,19.62,4.5,28.82,14.28,50.12,60.44,86.83,115.11,86.83h8.05v-119.73c0-42.4-5.55-84.1-16.38-124.18-2.17-8.14-4.6-16.22-7.21-24.22t-.02-.07c-1.24-3.76-2.54-7.54-3.9-11.27-.42,1.26-.89,2.52-1.33,3.76-.91,2.5-1.87,4.99-2.82,7.47.96-2.47,1.89-4.97,2.8-7.47.47-1.24.91-2.5,1.35-3.76v-.02c-.42-1.26-.89-2.52-1.33-3.76-1.84-5.02-3.78-9.96-5.81-14.93Z"/>
      <path class="cls-1" d="M482.99,111.53c1.59,1.66,3.24,3.41,5.23,5.58l.51.44,1.19,1.4c.26.3.51.61.77.89l.19.21c.26.26.47.51.7.77l.16.19c.82.89,1.73,1.87,2.66,2.94l2.03,2.05.3.61c.47.51.91,1.05,1.38,1.59l1.05,1.24c.79.89,1.56,1.8,2.33,2.71l1.7,2.03c.19.21.37.42.54.61l.54.65.02.05c.07.09.14.19.21.28,1.33,1.52,2.52,2.99,3.57,4.32l.16.19,1.54,1.91v.02c1.68,2.05,3.36,4.2,5.04,6.35.12.16.26.33.37.47l.23.3.23.3c.51.68,1,1.33,1.52,2.01.93,1.21,1.84,2.43,2.75,3.64l.19.26c.61.79,1.35,1.75,2.15,2.87.58.77,1.17,1.56,1.73,2.36.65.89,1.31,1.8,1.96,2.68l.3.4.09.14c.14.21.28.44.44.65.63.93,1.26,1.82,1.96,2.8,1.66,2.33,3.01,4.32,4.27,6.21,17.99,26.39,33.41,54.6,45.87,83.89,10.83-40.09,16.38-81.79,16.38-124.21V13.58h-8.05c-54.67,0-100.83,36.7-115.11,86.83l.12.12c3.45,3.41,6.98,7,10.76,11.01Z"/>
    </g>
  </g>
</svg>